<svg width="196" height="241" viewBox="0 0 196 241" fill="none" xmlns="http://www.w3.org/2000/svg">
<rect x="42.6604" width="126" height="69" fill="#2F2E34"/>
<path d="M114.66 17V22.625H107.16V50H101.16V22.625H93.6604V17H114.66Z" fill="white"/>
<rect x="42.1604" y="86.5" width="125" height="68" fill="#37B992" stroke="#333333"/>
<rect x="43.1604" y="172.5" width="125" height="68" fill="#FF7E59" stroke="#333333"/>
<path d="M85.5588 123C84.6526 117.109 83.5588 111.805 82.2776 107.086H82.0432C80.7776 111.758 79.6838 117.062 78.762 123H85.5588ZM77.5198 102H86.801C89.4885 110.406 91.6213 121.406 93.1995 135H87.1292C86.9417 132.844 86.6838 130.719 86.3557 128.625H77.9651C77.637 130.719 77.3792 132.844 77.1917 135H71.1213C72.6995 121.406 74.8323 110.406 77.5198 102ZM103.172 107.625V117.187H104.625C105.969 117.187 106.946 117.125 107.555 117C108.602 116.781 109.446 116.258 110.086 115.43C110.727 114.602 111.047 113.594 111.047 112.406C111.047 111.219 110.727 110.211 110.086 109.383C109.446 108.555 108.602 108.031 107.555 107.812C106.93 107.687 105.953 107.625 104.625 107.625H103.172ZM97.1721 102H104.578C106.891 102 108.539 102.117 109.524 102.352C111.742 102.883 113.547 104.047 114.938 105.844C116.344 107.625 117.047 109.812 117.047 112.406C117.047 114.359 116.633 116.102 115.805 117.633C114.992 119.148 113.883 120.352 112.477 121.242L117.633 135H111.258L106.899 122.789C106.43 122.805 105.656 122.812 104.578 122.812H103.172V135H97.1721V102ZM140.684 134.508C137.481 135.086 134.66 135.375 132.223 135.375C128.895 135.375 126.207 134.578 124.16 132.984C122.129 131.375 120.754 129.203 120.035 126.469C119.551 124.562 119.309 121.906 119.309 118.5C119.309 115.094 119.551 112.437 120.035 110.531C120.77 107.781 122.121 105.609 124.09 104.016C126.059 102.422 128.692 101.625 131.989 101.625C134.489 101.625 137.231 101.789 140.215 102.117V107.742C136.871 107.414 134.153 107.25 132.059 107.25C128.543 107.25 126.434 109.047 125.731 112.641C125.449 114.109 125.309 116.062 125.309 118.5C125.309 120.937 125.449 122.891 125.731 124.359C126.059 126.047 126.754 127.367 127.817 128.32C128.895 129.273 130.364 129.75 132.223 129.75C132.739 129.75 133.559 129.719 134.684 129.656V122.625H131.684V117H140.684V134.508Z" fill="black"/>
<path d="M80.1604 193.625V203.187H81.6135C82.9573 203.187 83.9338 203.125 84.5432 203C85.5901 202.781 86.4338 202.258 87.0745 201.43C87.7151 200.602 88.0354 199.594 88.0354 198.406C88.0354 197.219 87.7151 196.211 87.0745 195.383C86.4338 194.555 85.5901 194.031 84.5432 193.812C83.9182 193.687 82.9417 193.625 81.6135 193.625H80.1604ZM74.1604 188H81.5667C83.8792 188 85.5276 188.117 86.512 188.352C88.7307 188.883 90.5354 190.047 91.926 191.844C93.3323 193.625 94.0354 195.812 94.0354 198.406C94.0354 200.359 93.6213 202.102 92.7932 203.633C91.9807 205.148 90.8713 206.352 89.4651 207.242L94.6213 221H88.2463L83.887 208.789C83.4182 208.805 82.6448 208.812 81.5667 208.812H80.1604V221H74.1604V188ZM98.1721 188H116.172V193.625H104.172V201.594H113.172V207.219H104.172V215.375H116.172V221H98.1721V188ZM130.715 221.375C128.153 221.375 125.262 221.125 122.043 220.625V214.906C125.809 215.469 128.699 215.75 130.715 215.75C133.496 215.75 134.887 214.266 134.887 211.297C134.887 210.469 134.684 209.687 134.278 208.953C133.887 208.203 133.332 207.687 132.614 207.406C132.16 207.234 131.535 207.094 130.739 206.984C129.942 206.875 129.121 206.719 128.278 206.516C127.449 206.297 126.653 205.961 125.887 205.508C122.949 203.758 121.481 200.992 121.481 197.211C121.481 194.508 122.34 192.234 124.059 190.391C125.793 188.547 128.012 187.625 130.715 187.625C132.824 187.625 135.715 187.82 139.387 188.211V193.859C135.59 193.453 132.699 193.25 130.715 193.25C130.121 193.25 129.598 193.383 129.145 193.648C128.707 193.914 128.371 194.258 128.137 194.68C127.903 195.102 127.731 195.531 127.621 195.969C127.528 196.406 127.481 196.836 127.481 197.258C127.481 199.102 128.106 200.305 129.356 200.867C129.762 201.055 130.684 201.266 132.121 201.5C133.574 201.719 134.746 202.062 135.637 202.531C136.887 203.172 137.918 204 138.731 205.016C139.543 206.031 140.106 207.055 140.418 208.086C140.731 209.117 140.887 210.187 140.887 211.297C140.887 214.328 139.949 216.766 138.074 218.609C136.199 220.453 133.746 221.375 130.715 221.375Z" fill="black"/>
<path d="M44.6604 35C-25.9657 125.477 16.6998 193.254 46.8608 215.833" stroke="#FF7E59" stroke-width="2"/>
<rect x="43.1604" y="0.5" width="17" height="68" fill="#FF7E59" stroke="#333333"/>
<rect x="63.1604" y="0.5" width="5" height="68" fill="#FF7E59" fill-opacity="0.4" stroke="#333333"/>
<rect x="143.16" y="0.5" width="5" height="68" fill="#37B992" fill-opacity="0.4" stroke="#333333"/>
<rect x="151.16" y="0.5" width="17" height="68" fill="#37B992" stroke="#333333"/>
<path d="M166.16 29.5C224.16 140.5 178.16 102.5 166.16 122" stroke="#37B992" stroke-width="2"/>
<path d="M172.16 120.5C172.16 123.852 169.661 126.5 166.66 126.5C163.66 126.5 161.16 123.852 161.16 120.5C161.16 117.148 163.66 114.5 166.66 114.5C169.661 114.5 172.16 117.148 172.16 120.5Z" fill="#37B992" stroke="#333333"/>
<path d="M173.16 34.5C173.16 37.8521 170.661 40.5 167.66 40.5C164.66 40.5 162.16 37.8521 162.16 34.5C162.16 31.1479 164.66 28.5 167.66 28.5C170.661 28.5 173.16 31.1479 173.16 34.5Z" fill="#37B992" stroke="#333333"/>
<path d="M49.1604 36.5C49.1604 39.8521 46.661 42.5 43.6604 42.5C40.6598 42.5 38.1604 39.8521 38.1604 36.5C38.1604 33.1479 40.6598 30.5 43.6604 30.5C46.661 30.5 49.1604 33.1479 49.1604 36.5Z" fill="#FF7E59" stroke="#333333"/>
<path d="M49.1604 214.5C49.1604 217.852 46.661 220.5 43.6604 220.5C40.6598 220.5 38.1604 217.852 38.1604 214.5C38.1604 211.148 40.6598 208.5 43.6604 208.5C46.661 208.5 49.1604 211.148 49.1604 214.5Z" fill="#FF7E59" stroke="#333333"/>
</svg>
