<svg width="195" height="209" viewBox="0 0 195 209" fill="none" xmlns="http://www.w3.org/2000/svg" style="">
<path width="126" height="58" fill="black" fill-opacity="0.9" d="M 50.9491,0 L 158.9491,0 A 9,9,0,0,1,167.9491,9 L 167.9491,49 A 9,9,0,0,1,158.9491,58 L 50.9491,58 A 9,9,0,0,1,41.9491,49 L 41.9491,9 A 9,9,0,0,1,50.9491,0" class="BMoCpuAj_0"></path>
<path d="M115.609 12V17.625H108.109V45H102.109V17.625H94.6095V12H115.609Z" fill="white" class="BMoCpuAj_1"></path>
<path width="126" height="59" fill="#37B992" d="M 48.9491,74 L 156.9491,74 A 9,9,0,0,1,165.9491,83 L 165.9491,124 A 9,9,0,0,1,156.9491,133 L 48.9491,133 A 9,9,0,0,1,39.9491,124 L 39.9491,83 A 9,9,0,0,1,48.9491,74" class="BMoCpuAj_2"></path>
<path width="126" height="59" fill="#FF7E59" d="M 48.9491,150 L 156.9491,150 A 9,9,0,0,1,165.9491,159 L 165.9491,200 A 9,9,0,0,1,156.9491,209 L 48.9491,209 A 9,9,0,0,1,39.9491,200 L 39.9491,159 A 9,9,0,0,1,48.9491,150" class="BMoCpuAj_3"></path>
<path d="M90.44 116L88.92 108.92H81.12L79.56 116H76L82.76 88H87.36L94 116H90.44ZM85 90.64L81.76 105.92H88.28L85 90.64ZM105.44 104.4H101.88V116H98.4V88H105.56C107.827 88 109.533 88.5067 110.68 89.52C111.853 90.5067 112.44 92.08 112.44 94.24V98.08C112.44 101.093 111.24 102.973 108.84 103.72L114.4 116H110.6L105.44 104.4ZM108.96 93.88C108.96 92.8667 108.72 92.1333 108.24 91.68C107.787 91.2267 107.053 91 106.04 91H101.88V101.4H106.04C107.053 101.4 107.787 101.173 108.24 100.72C108.72 100.24 108.96 99.4933 108.96 98.48V93.88ZM125.591 116C123.271 116 121.484 115.44 120.231 114.32C119.004 113.173 118.391 111.467 118.391 109.2V94.8C118.391 92.5333 119.004 90.84 120.231 89.72C121.484 88.5733 123.271 88 125.591 88H130.991V91.04H125.191C124.204 91.04 123.404 91.3333 122.791 91.92C122.177 92.5067 121.871 93.2133 121.871 94.04V109.96C121.871 110.787 122.177 111.493 122.791 112.08C123.404 112.667 124.204 112.96 125.191 112.96H128.871V104.28H125.511V101.28H132.191V116H125.591Z" fill="white" class="BMoCpuAj_4"></path>
<path d="M86.44 183.4H82.88V195H79.4V167H86.56C88.8267 167 90.5333 167.507 91.68 168.52C92.8533 169.507 93.44 171.08 93.44 173.24V177.08C93.44 180.093 92.24 181.973 89.84 182.72L95.4 195H91.6L86.44 183.4ZM89.96 172.88C89.96 171.867 89.72 171.133 89.24 170.68C88.7867 170.227 88.0533 170 87.04 170H82.88V180.4H87.04C88.0533 180.4 88.7867 180.173 89.24 179.72C89.72 179.24 89.96 178.493 89.96 177.48V172.88ZM100.181 195V167H113.301V169.92H103.661V179.08H112.301V182H103.661V192.08H113.301V195H100.181ZM131.048 188.2C131.048 190.467 130.421 192.173 129.168 193.32C127.941 194.44 126.168 195 123.848 195H118.568V191.96H124.248C125.234 191.96 126.034 191.667 126.648 191.08C127.261 190.493 127.568 189.787 127.568 188.96V184.8C127.568 184 127.354 183.36 126.928 182.88C126.528 182.373 125.914 182.12 125.088 182.12H124.288C122.314 182.12 120.754 181.547 119.608 180.4C118.461 179.227 117.888 177.533 117.888 175.32V173.8C117.888 171.533 118.501 169.84 119.728 168.72C120.981 167.573 122.768 167 125.088 167H130.408V170.04H124.688C123.701 170.04 122.901 170.333 122.288 170.92C121.674 171.507 121.368 172.213 121.368 173.04V176.08C121.368 176.907 121.634 177.6 122.168 178.16C122.701 178.693 123.394 178.96 124.248 178.96H125.048C126.941 178.96 128.408 179.507 129.448 180.6C130.514 181.693 131.048 183.347 131.048 185.56V188.2Z" fill="white" class="BMoCpuAj_5"></path>
<path width="67" height="31" fill="#FF7E59" d="M 19.9491,14 L 72.9491,14 A 7,7,0,0,1,79.9491,21 L 79.9491,38 A 7,7,0,0,1,72.9491,45 L 19.9491,45 A 7,7,0,0,1,12.9491,38 L 12.9491,21 A 7,7,0,0,1,19.9491,14" class="BMoCpuAj_6"></path>
<path d="M45.9491 30C-27.4332 108.956 16.0249 167.421 46.9267 186.784" stroke="#FF7E59" stroke-width="2" class="BMoCpuAj_7"></path>
<path width="64" height="31" fill="#37B992" d="M 136.949,14 L 186.949,14 A 7,7,0,0,1,193.949,21 L 193.949,38 A 7,7,0,0,1,186.949,45 L 136.949,45 A 7,7,0,0,1,129.949,38 L 129.949,21 A 7,7,0,0,1,136.949,14" class="BMoCpuAj_8"></path>
<path d="M165.109 16.5C223.109 127.5 177.109 89.5 165.109 109" stroke="#37B992" stroke-width="2" class="BMoCpuAj_9"></path>
<style data-made-with="vivus-instant">.BMoCpuAj_0{stroke-dasharray:353 355;stroke-dashoffset:354;animation:BMoCpuAj_draw_0 3200ms ease-in-out 0ms infinite,BMoCpuAj_fade 3200ms linear 0ms infinite;}.BMoCpuAj_1{stroke-dasharray:108 110;stroke-dashoffset:109;animation:BMoCpuAj_draw_1 3200ms ease-in-out 0ms infinite,BMoCpuAj_fade 3200ms linear 0ms infinite;}.BMoCpuAj_2{stroke-dasharray:355 357;stroke-dashoffset:356;animation:BMoCpuAj_draw_2 3200ms ease-in-out 0ms infinite,BMoCpuAj_fade 3200ms linear 0ms infinite;}.BMoCpuAj_3{stroke-dasharray:355 357;stroke-dashoffset:356;animation:BMoCpuAj_draw_3 3200ms ease-in-out 0ms infinite,BMoCpuAj_fade 3200ms linear 0ms infinite;}.BMoCpuAj_4{stroke-dasharray:392 394;stroke-dashoffset:393;animation:BMoCpuAj_draw_4 3200ms ease-in-out 0ms infinite,BMoCpuAj_fade 3200ms linear 0ms infinite;}.BMoCpuAj_5{stroke-dasharray:361 363;stroke-dashoffset:362;animation:BMoCpuAj_draw_5 3200ms ease-in-out 0ms infinite,BMoCpuAj_fade 3200ms linear 0ms infinite;}.BMoCpuAj_6{stroke-dasharray:184 186;stroke-dashoffset:185;animation:BMoCpuAj_draw_6 3200ms ease-in-out 0ms infinite,BMoCpuAj_fade 3200ms linear 0ms infinite;}.BMoCpuAj_7{stroke-dasharray:183 185;stroke-dashoffset:184;animation:BMoCpuAj_draw_7 3200ms ease-in-out 0ms infinite,BMoCpuAj_fade 3200ms linear 0ms infinite;}.BMoCpuAj_8{stroke-dasharray:178 180;stroke-dashoffset:179;animation:BMoCpuAj_draw_8 3200ms ease-in-out 0ms infinite,BMoCpuAj_fade 3200ms linear 0ms infinite;}.BMoCpuAj_9{stroke-dasharray:117 119;stroke-dashoffset:118;animation:BMoCpuAj_draw_9 3200ms ease-in-out 0ms infinite,BMoCpuAj_fade 3200ms linear 0ms infinite;}@keyframes BMoCpuAj_draw{100%{stroke-dashoffset:0;}}@keyframes BMoCpuAj_fade{0%{stroke-opacity:1;}90.625%{stroke-opacity:1;}100%{stroke-opacity:0;}}@keyframes BMoCpuAj_draw_0{6.25%{stroke-dashoffset: 354}59.375%{ stroke-dashoffset: 0;}100%{ stroke-dashoffset: 0;}}@keyframes BMoCpuAj_draw_1{6.25%{stroke-dashoffset: 109}59.375%{ stroke-dashoffset: 0;}100%{ stroke-dashoffset: 0;}}@keyframes BMoCpuAj_draw_2{6.25%{stroke-dashoffset: 356}59.375%{ stroke-dashoffset: 0;}100%{ stroke-dashoffset: 0;}}@keyframes BMoCpuAj_draw_3{6.25%{stroke-dashoffset: 356}59.375%{ stroke-dashoffset: 0;}100%{ stroke-dashoffset: 0;}}@keyframes BMoCpuAj_draw_4{6.25%{stroke-dashoffset: 393}59.375%{ stroke-dashoffset: 0;}100%{ stroke-dashoffset: 0;}}@keyframes BMoCpuAj_draw_5{6.25%{stroke-dashoffset: 362}59.375%{ stroke-dashoffset: 0;}100%{ stroke-dashoffset: 0;}}@keyframes BMoCpuAj_draw_6{6.25%{stroke-dashoffset: 185}59.375%{ stroke-dashoffset: 0;}100%{ stroke-dashoffset: 0;}}@keyframes BMoCpuAj_draw_7{6.25%{stroke-dashoffset: 184}59.375%{ stroke-dashoffset: 0;}100%{ stroke-dashoffset: 0;}}@keyframes BMoCpuAj_draw_8{6.25%{stroke-dashoffset: 179}59.375%{ stroke-dashoffset: 0;}100%{ stroke-dashoffset: 0;}}@keyframes BMoCpuAj_draw_9{6.25%{stroke-dashoffset: 118}59.375%{ stroke-dashoffset: 0;}100%{ stroke-dashoffset: 0;}}</style></svg>
