<svg width="207" height="209" viewBox="0 0 207 209" fill="none" xmlns="http://www.w3.org/2000/svg">
<rect x="40.4491" y="0.5" width="125" height="57" rx="8.5" fill="black" fill-opacity="0.9" stroke="white"/>
<path d="M113.609 12V17.625H106.109V45H100.109V17.625H92.6095V12H113.609Z" fill="white"/>
<rect x="37.9491" y="74" width="126" height="59" rx="9" fill="#37B992"/>
<rect x="37.9491" y="150" width="126" height="59" rx="9" fill="#FF7E59"/>
<path d="M88.44 116L86.92 108.92H79.12L77.56 116H74L80.76 88H85.36L92 116H88.44ZM83 90.64L79.76 105.92H86.28L83 90.64ZM103.44 104.4H99.88V116H96.4V88H103.56C105.827 88 107.533 88.5067 108.68 89.52C109.853 90.5067 110.44 92.08 110.44 94.24V98.08C110.44 101.093 109.24 102.973 106.84 103.72L112.4 116H108.6L103.44 104.4ZM106.96 93.88C106.96 92.8667 106.72 92.1333 106.24 91.68C105.787 91.2267 105.053 91 104.04 91H99.88V101.4H104.04C105.053 101.4 105.787 101.173 106.24 100.72C106.72 100.24 106.96 99.4933 106.96 98.48V93.88ZM123.591 116C121.271 116 119.484 115.44 118.231 114.32C117.004 113.173 116.391 111.467 116.391 109.2V94.8C116.391 92.5333 117.004 90.84 118.231 89.72C119.484 88.5733 121.271 88 123.591 88H128.991V91.04H123.191C122.204 91.04 121.404 91.3333 120.791 91.92C120.177 92.5067 119.871 93.2133 119.871 94.04V109.96C119.871 110.787 120.177 111.493 120.791 112.08C121.404 112.667 122.204 112.96 123.191 112.96H126.871V104.28H123.511V101.28H130.191V116H123.591Z" fill="white"/>
<path d="M84.44 183.4H80.88V195H77.4V167H84.56C86.8267 167 88.5333 167.507 89.68 168.52C90.8533 169.507 91.44 171.08 91.44 173.24V177.08C91.44 180.093 90.24 181.973 87.84 182.72L93.4 195H89.6L84.44 183.4ZM87.96 172.88C87.96 171.867 87.72 171.133 87.24 170.68C86.7867 170.227 86.0533 170 85.04 170H80.88V180.4H85.04C86.0533 180.4 86.7867 180.173 87.24 179.72C87.72 179.24 87.96 178.493 87.96 177.48V172.88ZM98.1813 195V167H111.301V169.92H101.661V179.08H110.301V182H101.661V192.08H111.301V195H98.1813ZM129.048 188.2C129.048 190.467 128.421 192.173 127.168 193.32C125.941 194.44 124.168 195 121.848 195H116.568V191.96H122.248C123.234 191.96 124.034 191.667 124.648 191.08C125.261 190.493 125.568 189.787 125.568 188.96V184.8C125.568 184 125.354 183.36 124.928 182.88C124.528 182.373 123.914 182.12 123.088 182.12H122.288C120.314 182.12 118.754 181.547 117.608 180.4C116.461 179.227 115.888 177.533 115.888 175.32V173.8C115.888 171.533 116.501 169.84 117.728 168.72C118.981 167.573 120.768 167 123.088 167H128.408V170.04H122.688C121.701 170.04 120.901 170.333 120.288 170.92C119.674 171.507 119.368 172.213 119.368 173.04V176.08C119.368 176.907 119.634 177.6 120.168 178.16C120.701 178.693 121.394 178.96 122.248 178.96H123.048C124.941 178.96 126.408 179.507 127.448 180.6C128.514 181.693 129.048 183.347 129.048 185.56V188.2Z" fill="white"/>
<rect x="10.9491" y="14" width="67" height="31" rx="7" fill="#37B992"/>
<path d="M161.838 30C235.22 108.956 191.762 167.421 160.86 186.784" stroke="#FF7E59" stroke-width="2"/>
<rect x="127.949" y="14" width="64" height="31" rx="7" fill="#FF7E59"/>
<path d="M39.6574 16C-18.3426 127 27.6574 89 39.6574 108.5" stroke="#37B992" stroke-width="2"/>
</svg>
