<?xml version="1.0" standalone="no"?>
<!DOCTYPE svg PUBLIC "-//W3C//DTD SVG 20010904//EN"
 "http://www.w3.org/TR/2001/REC-SVG-20010904/DTD/svg10.dtd">
<svg version="1.0" xmlns="http://www.w3.org/2000/svg"
 width="836.000000pt" height="836.000000pt" viewBox="0 0 836.000000 836.000000"
 preserveAspectRatio="xMidYMid meet">
<metadata>
Created by potrace 1.11, written by Peter Selinger 2001-2013
</metadata>
<g transform="translate(0.000000,836.000000) scale(0.100000,-0.100000)"
fill="#000000" stroke="none">
<path d="M2238 8352 c-16 -2 -28 -7 -28 -11 0 -4 -8 -7 -18 -8 -24 -2 -92 -42
-92 -55 0 -5 -4 -7 -8 -4 -10 6 -68 -63 -65 -76 2 -4 -2 -8 -7 -8 -13 0 -52
-89 -44 -101 3 -5 1 -9 -4 -9 -5 0 -8 -18 -8 -41 1 -22 -1 -42 -4 -44 -5 -3
-5 -60 0 -60 1 0 3 -8 5 -17 2 -10 0 -18 -4 -18 -4 0 -6 -23 -5 -50 l3 -50
-47 0 c-26 1 -59 -1 -74 -3 -14 -2 -32 -1 -39 4 -7 4 -23 3 -36 -2 -12 -5 -23
-5 -23 -1 0 6 -81 6 -140 -1 -14 -2 -35 0 -47 5 -13 4 -25 3 -28 -3 -4 -5 -11
-6 -17 -3 -11 7 -103 7 -150 1 -14 -2 -32 -1 -39 4 -7 4 -23 3 -36 -2 -12 -5
-23 -5 -23 -1 0 4 -24 6 -52 5 -29 -1 -87 -4 -128 -5 -54 -3 -89 -10 -123 -27
-52 -25 -117 -85 -117 -108 0 -7 -4 -13 -9 -13 -8 0 -17 -23 -28 -80 -7 -34
-7 -748 0 -783 14 -68 66 -146 124 -184 33 -22 139 -51 154 -43 7 5 22 4 35 0
12 -5 24 -7 26 -5 5 5 56 6 163 4 39 0 75 0 80 1 6 1 15 1 20 0 13 -3 111 -1
126 2 21 5 19 -17 -3 -42 -13 -14 -39 -48 -57 -75 -19 -28 -37 -52 -40 -55 -5
-5 -25 -33 -126 -180 -202 -296 -408 -674 -530 -975 -20 -49 -40 -99 -45 -110
-5 -11 -30 -80 -55 -154 -111 -330 -177 -648 -200 -971 -6 -78 -5 -384 1 -450
2 -30 6 -75 8 -100 5 -60 15 -139 21 -170 3 -14 7 -38 10 -55 9 -61 17 -101
31 -157 8 -32 21 -86 29 -120 16 -64 93 -298 116 -353 7 -16 13 -32 14 -35 25
-74 134 -299 207 -425 19 -33 41 -71 49 -85 8 -14 16 -27 19 -30 3 -3 31 -45
64 -95 32 -49 74 -109 92 -132 19 -23 34 -46 34 -51 0 -6 3 -12 8 -14 4 -2 27
-28 52 -58 92 -114 188 -219 302 -330 155 -152 207 -200 216 -200 4 0 15 -8
23 -17 9 -10 36 -35 61 -55 l45 -37 0 -358 c1 -381 4 -412 50 -492 47 -80 114
-133 213 -168 27 -10 519 -12 2270 -10 l2235 2 62 29 c76 35 144 104 181 184
l27 57 1 885 c1 946 2 936 -49 1023 -56 93 -132 147 -241 168 -58 11 -4391 14
-4454 3 -137 -24 -265 -154 -288 -289 -4 -22 -7 -239 -7 -483 0 -243 -1 -442
-2 -442 -1 0 -11 8 -23 18 -11 9 -40 33 -63 52 -111 91 -261 239 -372 365 -39
44 -74 82 -79 83 -4 2 -8 10 -8 17 0 7 -4 15 -9 17 -12 4 -131 156 -131 167 0
5 -4 11 -8 13 -25 10 -242 366 -309 508 -87 183 -182 431 -194 505 -1 6 -6 21
-11 35 -10 26 -17 50 -23 85 -2 11 -11 47 -19 80 -8 33 -17 74 -20 90 -18 91
-26 145 -30 185 -3 25 -9 74 -13 110 -4 36 -8 175 -8 310 1 263 10 389 39 550
13 74 20 116 18 123 -1 4 2 7 6 7 4 0 8 8 9 18 1 19 9 67 16 97 39 158 55 212
98 340 51 149 101 278 145 373 19 41 34 76 34 78 0 11 162 327 209 407 28 49
51 91 51 93 0 3 11 20 25 38 14 18 25 36 25 39 0 3 17 32 38 64 21 32 56 85
77 118 61 93 238 340 247 343 4 2 8 7 8 12 0 4 15 25 32 45 l33 36 95 -2 c53
-2 100 -1 105 2 6 2 33 2 60 -2 28 -3 46 -7 40 -7 -11 -2 -14 -72 -3 -72 4 0
3 -12 -1 -27 -4 -16 -6 -37 -4 -48 1 -11 5 -39 8 -63 9 -74 90 -212 124 -212
6 0 11 -5 11 -11 0 -20 125 -70 191 -75 70 -5 68 -5 122 -1 21 1 41 -1 44 -6
2 -4 11 -3 19 4 11 9 14 9 14 -1 0 -9 4 -9 13 -2 6 5 31 8 55 6 32 -3 41 0 36
9 -4 6 2 4 13 -6 14 -13 23 -15 28 -7 5 8 11 8 21 -1 8 -6 14 -8 14 -3 0 5 43
9 95 9 52 0 95 -4 95 -8 0 -4 8 -4 18 2 18 9 63 8 81 -3 5 -4 12 -2 15 3 3 4
20 6 38 4 37 -5 33 -5 108 0 30 2 61 -1 68 -6 7 -5 12 -6 12 0 0 10 46 10 57
0 3 -4 12 -2 20 4 10 9 13 8 13 0 0 -7 5 -9 13 -4 17 10 137 10 137 -1 0 -5 6
-4 13 1 6 5 33 8 60 7 34 -2 45 1 40 9 -3 7 3 4 14 -6 14 -13 23 -15 28 -7 5
8 11 8 21 -1 8 -6 14 -8 14 -3 0 5 43 9 95 9 52 0 95 -4 95 -8 0 -5 5 -5 12
-1 17 11 58 11 58 1 0 -4 6 -5 13 0 16 10 67 10 67 0 0 -5 5 -5 11 -2 18 12
64 13 77 3 6 -6 12 -7 12 -2 0 11 136 11 146 1 4 -4 13 -2 21 4 10 9 13 8 13
0 0 -7 5 -9 13 -4 17 10 137 10 137 -1 0 -5 6 -4 13 1 6 5 33 8 60 7 34 -2 45
1 40 9 -3 7 3 4 14 -6 14 -13 23 -15 28 -7 5 8 11 8 21 -1 8 -6 14 -8 14 -3 0
5 43 9 95 9 52 0 95 -4 95 -8 0 -4 8 -4 18 2 18 9 63 8 81 -3 5 -4 12 -2 15 3
3 4 20 6 38 4 37 -5 33 -5 108 0 30 2 61 -1 68 -6 7 -5 12 -6 12 0 0 10 46 10
57 0 3 -4 12 -2 20 4 10 9 13 8 13 0 0 -7 5 -9 13 -4 17 10 137 10 137 -1 0
-5 6 -4 13 1 6 5 33 8 60 7 34 -2 45 1 40 9 -3 7 3 4 14 -6 14 -13 23 -15 28
-7 5 8 11 8 21 -1 8 -6 14 -8 14 -3 0 5 43 9 95 9 52 0 95 -4 95 -8 0 -5 5 -5
12 -1 17 11 58 11 58 1 0 -4 6 -5 13 0 16 10 67 10 67 0 0 -5 5 -5 11 -2 18
12 64 13 77 3 6 -6 12 -7 12 -2 0 11 136 11 146 1 4 -4 13 -2 21 4 10 9 13 8
13 0 0 -7 5 -9 13 -4 16 10 137 10 137 0 0 -5 5 -5 12 -1 16 10 208 11 208 1
0 -5 6 -5 13 0 6 4 20 6 31 4 13 -2 16 1 10 11 -4 7 2 5 13 -5 11 -9 23 -14
27 -10 3 4 21 8 39 9 67 6 157 37 157 55 0 5 6 9 13 9 14 0 87 70 87 84 0 4 7
14 15 23 9 8 19 28 22 44 3 16 8 29 12 29 9 0 14 49 15 167 l1 102 150 0 c83
0 155 0 160 1 6 2 15 1 20 0 6 -1 27 -2 48 -2 27 1 40 -4 44 -16 3 -9 24 -55
45 -102 22 -47 51 -111 64 -142 13 -32 35 -81 48 -110 53 -116 134 -316 192
-473 25 -66 47 -127 51 -135 8 -18 6 -14 22 -70 7 -25 18 -51 23 -57 6 -7 8
-13 5 -13 -4 0 1 -19 9 -42 9 -24 17 -51 19 -60 2 -9 13 -50 24 -90 11 -40 22
-84 24 -98 3 -14 10 -43 15 -65 25 -97 36 -334 19 -420 -20 -104 -93 -202
-180 -243 -51 -24 -133 -52 -167 -58 -14 -2 -45 -8 -70 -13 -52 -11 -91 -18
-140 -26 -210 -35 -373 -99 -469 -184 -13 -11 -26 -19 -29 -16 -2 2 -5 226 -5
497 0 271 -3 500 -7 508 -56 124 -82 160 -150 207 -46 31 -89 48 -150 58 -19
4 -296 6 -615 5 -319 0 -589 -1 -600 0 -11 0 -121 0 -245 -1 -124 0 -232 0
-240 0 -8 0 -332 0 -720 0 -388 0 -712 0 -720 0 -8 1 -116 1 -240 0 -124 0
-232 0 -240 0 -8 0 -116 0 -240 0 -124 0 -232 0 -240 0 -24 1 -294 0 -310 -1
-8 0 -38 -7 -67 -15 -120 -33 -225 -150 -249 -278 -9 -49 -9 -1714 0 -1770 15
-90 79 -184 164 -240 46 -29 138 -56 189 -55 58 2 285 1 313 0 14 -1 31 -2 38
-1 28 1 192 1 255 0 37 -1 70 1 73 4 3 2 19 2 37 -2 18 -4 43 -4 57 -1 14 4
33 3 42 -2 9 -4 19 -4 22 1 3 5 21 6 38 2 18 -4 44 -5 58 -1 14 3 36 5 50 3
14 -1 79 -2 145 -2 66 0 131 0 145 -1 14 -1 31 -2 38 -1 28 1 192 1 255 0 37
-1 70 1 73 4 3 2 19 2 37 -2 18 -4 43 -4 57 -1 14 4 33 3 42 -2 9 -4 19 -4 22
1 3 5 21 6 38 2 18 -4 44 -5 58 -1 14 3 36 5 50 3 14 -1 79 -2 145 -2 66 0
131 0 145 -1 14 -1 31 -2 38 -1 28 1 192 1 255 0 37 -1 70 1 73 4 3 2 19 2 37
-2 18 -4 43 -4 57 -1 14 4 33 3 42 -2 9 -4 19 -4 22 1 3 5 21 6 38 2 18 -4 44
-4 58 -1 14 4 33 3 42 -2 9 -4 19 -4 22 1 3 5 21 6 38 2 18 -4 44 -4 58 -1 14
4 33 3 42 -2 9 -4 19 -4 22 1 3 5 21 6 38 2 18 -4 44 -5 58 -1 14 3 36 5 50 3
14 -1 79 -2 145 -2 66 0 131 0 145 -1 14 -1 31 -2 38 -1 28 1 192 1 255 0 37
-1 70 1 73 4 3 2 19 2 37 -2 18 -4 43 -4 57 -1 14 4 33 3 42 -2 9 -4 19 -4 22
1 3 5 21 6 38 2 18 -4 44 -5 58 -1 14 3 36 5 50 3 29 -4 104 -3 175 1 116 6
238 95 293 214 l26 57 2 315 c1 173 3 324 3 336 1 12 10 32 22 45 12 13 29 33
38 44 62 77 216 147 396 179 17 3 57 11 90 16 94 17 96 18 170 34 198 44 315
118 377 240 54 105 72 300 43 471 -22 129 -25 147 -41 210 -9 33 -18 68 -19
78 -2 9 -6 21 -9 25 -3 5 -7 20 -10 34 -2 13 -26 90 -52 169 -27 79 -49 146
-49 149 -1 3 -7 19 -14 35 -6 17 -21 55 -32 85 -12 30 -28 73 -37 95 -10 21
-17 42 -18 45 0 3 -5 16 -11 30 -6 14 -33 79 -61 145 -28 66 -84 196 -126 289
-42 94 -76 171 -76 173 0 1 60 3 133 3 166 0 195 4 249 31 55 28 99 72 129
129 l24 45 0 415 0 415 -24 45 c-48 90 -127 146 -221 156 -53 6 -154 6 -192 1
-14 -2 -32 -1 -39 4 -7 4 -23 3 -36 -2 -12 -5 -23 -5 -23 -1 0 6 -81 6 -140
-1 -14 -2 -35 0 -47 5 -13 4 -25 3 -28 -3 -4 -5 -11 -6 -17 -3 -11 7 -103 7
-150 1 -14 -2 -32 -1 -39 4 -7 4 -23 3 -36 -2 -15 -5 -23 -5 -23 2 0 6 -4 7
-10 4 -12 -8 -11 -16 -14 140 -1 72 -5 136 -9 143 -5 6 -10 22 -12 34 -3 12
-8 24 -12 27 -5 3 -9 13 -11 21 -2 8 -8 17 -13 18 -5 2 -9 10 -9 17 0 16 -97
105 -115 105 -7 0 -15 4 -17 8 -1 4 -25 15 -53 24 -45 14 -188 16 -1378 16
-1024 1 -1326 -2 -1320 -11 5 -9 3 -9 -8 0 -21 17 -1657 17 -1678 0 -12 -10
-13 -9 -7 1 8 13 -32 14 -116 4z m2963 -39 c13 -16 12 -17 -3 -4 -10 7 -18 15
-18 17 0 8 8 3 21 -13z m-2070 -70 c13 -16 12 -17 -3 -4 -10 7 -18 15 -18 17
0 8 8 3 21 -13z m2880 0 c13 -16 12 -17 -3 -4 -10 7 -18 15 -18 17 0 8 8 3 21
-13z m-3128 -18 c-3 -9 -8 -14 -10 -11 -3 3 -2 9 2 15 9 16 15 13 8 -4z m645
-10 c-3 -3 -9 2 -12 12 -6 14 -5 15 5 6 7 -7 10 -15 7 -18z m2235 10 c-3 -9
-8 -14 -10 -11 -3 3 -2 9 2 15 9 16 15 13 8 -4z m-2437 -31 c1 -9 0 -13 -4
-10 -3 4 -7 14 -8 22 -1 9 0 13 4 10 3 -4 7 -14 8 -22z m3269 6 c-3 -5 -12
-10 -18 -10 -7 0 -6 4 3 10 19 12 23 12 15 0z m-4274 -47 c13 -16 12 -17 -3
-4 -10 7 -18 15 -18 17 0 8 8 3 21 -13z m3840 0 c13 -16 12 -17 -3 -4 -10 7
-18 15 -18 17 0 8 8 3 21 -13z m-1954 -118 c0 -8 -4 -12 -9 -9 -5 3 -6 10 -3
15 9 13 12 11 12 -6z m1234 -68 c-10 -9 -11 -8 -5 6 3 10 9 15 12 12 3 -3 0
-11 -7 -18z m-750 -4 c13 -16 12 -17 -3 -4 -10 7 -18 15 -18 17 0 8 8 3 21
-13z m-2681 3 c0 -3 -4 -8 -10 -11 -5 -3 -10 -1 -10 4 0 6 5 11 10 11 6 0 10
-2 10 -4z m720 -42 c0 -8 -19 -13 -24 -6 -3 5 1 9 9 9 8 0 15 -2 15 -3z m3840
0 c0 -8 -19 -13 -24 -6 -3 5 1 9 9 9 8 0 15 -2 15 -3z m-4007 -19 c-3 -9 -8
-14 -10 -11 -3 3 -2 9 2 15 9 16 15 13 8 -4z m3840 0 c-3 -9 -8 -14 -10 -11
-3 3 -2 9 2 15 9 16 15 13 8 -4z m-2688 -25 c3 -6 -1 -7 -9 -4 -18 7 -21 14
-7 14 6 0 13 -4 16 -10z m301 -282 c3 -4 -1 -5 -10 -4 -8 1 -18 5 -22 8 -3 4
1 5 10 4 8 -1 18 -5 22 -8z m339 -38 c3 -6 -1 -7 -9 -4 -18 7 -21 14 -7 14 6
0 13 -4 16 -10z m846 -47 c13 -16 12 -17 -3 -4 -10 7 -18 15 -18 17 0 8 8 3
21 -13z m-1634 -118 c0 -8 -4 -12 -9 -9 -5 3 -6 10 -3 15 9 13 12 11 12 -6z
m418 -3 c-3 -3 -11 0 -18 7 -9 10 -8 11 6 5 10 -3 15 -9 12 -12z m395 -66 c0
-2 -8 -10 -17 -17 -16 -13 -17 -12 -4 4 13 16 21 21 21 13z m-856 -132 c3 -8
2 -12 -4 -9 -6 3 -10 10 -10 16 0 14 7 11 14 -7z m326 -48 c0 -3 -4 -8 -10
-11 -5 -3 -10 -1 -10 4 0 6 5 11 10 11 6 0 10 -2 10 -4z m961 -23 c13 -16 12
-17 -3 -4 -10 7 -18 15 -18 17 0 8 8 3 21 -13z m-1287 -53 c-6 -6 -10 -3 -10
10 0 13 4 16 10 10 7 -7 7 -13 0 -20z m1791 10 c-3 -5 -12 -10 -18 -10 -7 0
-6 4 3 10 19 12 23 12 15 0z m-1792 -115 c-3 -9 -8 -14 -10 -11 -3 3 -2 9 2
15 9 16 15 13 8 -4z m684 -210 c0 -8 -4 -12 -9 -9 -5 3 -6 10 -3 15 9 13 12
11 12 -6z m484 -72 c13 -16 12 -17 -3 -4 -10 7 -18 15 -18 17 0 8 8 3 21 -13z
m554 -72 c3 -5 2 -12 -3 -15 -5 -3 -9 1 -9 9 0 17 3 19 12 6z m-1884 -44 c-10
-9 -11 -8 -5 6 3 10 9 15 12 12 3 -3 0 -11 -7 -18z m370 -44 c13 -16 12 -17
-3 -4 -10 7 -18 15 -18 17 0 8 8 3 21 -13z m1699 -77 c0 -2 -7 -7 -16 -10 -8
-3 -12 -2 -9 4 6 10 25 14 25 6z m-2290 -40 c0 -2 -8 -10 -17 -17 -16 -13 -17
-12 -4 4 13 16 21 21 21 13z m1231 -43 c13 -16 12 -17 -3 -4 -10 7 -18 15 -18
17 0 8 8 3 21 -13z m1920 0 c13 -16 12 -17 -3 -4 -10 7 -18 15 -18 17 0 8 8 3
21 -13z m-1370 -10 c13 -16 12 -17 -3 -4 -17 13 -22 21 -14 21 2 0 10 -8 17
-17z m1487 -58 c-3 -3 -9 2 -12 12 -6 14 -5 15 5 6 7 -7 10 -15 7 -18z m-2693
-15 c-3 -5 -12 -10 -18 -10 -7 0 -6 4 3 10 19 12 23 12 15 0z m275 6 c0 -2 -7
-7 -16 -10 -8 -3 -12 -2 -9 4 6 10 25 14 25 6z m685 -6 c-3 -5 -12 -10 -18
-10 -7 0 -6 4 3 10 19 12 23 12 15 0z m960 0 c-3 -5 -12 -10 -18 -10 -7 0 -6
4 3 10 19 12 23 12 15 0z m275 6 c0 -2 -7 -7 -16 -10 -8 -3 -12 -2 -9 4 6 10
25 14 25 6z m-2629 -53 c13 -16 12 -17 -3 -4 -10 7 -18 15 -18 17 0 8 8 3 21
-13z m1920 0 c13 -16 12 -17 -3 -4 -10 7 -18 15 -18 17 0 8 8 3 21 -13z
m-2437 -111 c3 -5 -1 -9 -9 -9 -8 0 -12 4 -9 9 3 4 7 8 9 8 2 0 6 -4 9 -8z"/>
</g>
</svg>
