<?xml version="1.0" standalone="no"?>
<!DOCTYPE svg PUBLIC "-//W3C//DTD SVG 20010904//EN"
 "http://www.w3.org/TR/2001/REC-SVG-20010904/DTD/svg10.dtd">
<svg version="1.0" xmlns="http://www.w3.org/2000/svg"
 width="836.000000pt" height="836.000000pt" viewBox="0 0 836.000000 836.000000"
 preserveAspectRatio="xMidYMid meet">
<metadata>
Created by potrace 1.11, written by Peter Selinger 2001-2013
</metadata>
<g transform="translate(0.000000,836.000000) scale(0.100000,-0.100000)"
fill="#000000" stroke="none">
<path d="M1894 8345 c-49 -15 -112 -54 -152 -93 -29 -28 -81 -110 -86 -134 -2
-7 -6 -30 -11 -51 -4 -22 -8 -89 -9 -150 l-1 -112 -451 -1 c-509 -2 -528 -4
-607 -72 -44 -38 -83 -103 -94 -157 -8 -45 -9 -776 0 -782 4 -2 7 -12 7 -23 0
-27 40 -98 74 -131 49 -48 149 -85 214 -80 6 1 20 1 30 1 9 0 28 0 42 1 14 0
32 0 40 0 8 -1 36 -1 63 -1 26 1 47 -2 47 -5 0 -4 -11 -30 -24 -58 -13 -29
-33 -74 -46 -102 -12 -27 -32 -72 -45 -100 -12 -27 -32 -72 -43 -100 -11 -27
-43 -104 -70 -170 -52 -123 -113 -281 -113 -290 0 -2 -12 -33 -25 -67 -14 -35
-28 -74 -30 -87 -3 -13 -10 -33 -15 -43 -6 -11 -12 -27 -14 -36 -2 -9 -13 -47
-25 -85 -12 -37 -23 -75 -25 -85 -2 -9 -4 -17 -5 -17 -1 0 -3 -7 -5 -15 -1 -8
-10 -42 -18 -75 -26 -102 -49 -237 -52 -310 -2 -38 -5 -72 -6 -75 -1 -3 0 -9
1 -15 1 -5 2 -26 2 -45 -1 -59 28 -181 55 -233 31 -62 102 -134 168 -171 28
-15 88 -38 134 -52 76 -22 105 -29 166 -39 11 -2 31 -6 45 -9 14 -2 41 -7 60
-10 31 -5 59 -10 160 -32 98 -20 211 -77 290 -145 l35 -30 1 -344 c1 -189 5
-361 9 -382 4 -21 7 -40 7 -43 3 -20 64 -117 91 -143 45 -43 73 -60 160 -96
20 -8 613 -10 2265 -8 l2237 2 57 27 c69 32 142 98 170 153 46 89 46 86 44
1017 l-1 883 -28 60 c-50 106 -145 183 -255 205 -49 10 -4417 16 -4450 6 -9
-3 -30 -7 -45 -10 -107 -18 -233 -159 -253 -281 -4 -22 -7 -241 -7 -487 0
-247 -3 -448 -6 -448 -2 0 -14 9 -25 19 -41 37 -208 111 -287 126 -13 3 -37 8
-54 12 -16 3 -39 8 -50 9 -11 1 -30 5 -41 7 -12 3 -37 8 -55 11 -19 3 -45 8
-59 11 -14 3 -36 7 -50 10 -71 14 -88 18 -128 31 -180 59 -255 154 -279 354
-3 25 -5 50 -5 55 0 28 13 173 17 195 3 14 7 36 10 50 2 14 7 39 10 55 8 49
42 189 52 215 3 8 7 20 8 27 12 54 158 468 194 548 5 11 32 76 61 145 28 69
58 139 65 155 22 49 54 125 55 130 1 2 16 35 34 72 18 38 39 85 47 106 7 20
15 38 19 38 36 9 107 11 223 6 37 -1 67 1 67 4 0 4 16 3 34 -1 19 -4 37 -6 40
-3 4 4 82 4 149 0 l32 -2 1 -85 c1 -47 4 -105 8 -129 14 -102 95 -213 189
-259 82 -40 98 -42 327 -42 107 1 204 1 215 1 11 0 67 0 125 0 58 1 110 1 115
1 6 -1 219 -1 475 -1 256 0 474 0 485 0 11 0 83 0 160 0 77 1 147 1 155 0 8 0
155 0 325 0 171 0 315 0 320 0 6 0 219 0 475 0 256 0 474 0 485 0 596 0 865 1
887 3 46 7 133 52 177 92 83 74 117 162 119 304 0 47 1 93 1 103 1 12 9 17 29
17 15 -1 53 -1 84 0 32 1 62 -1 67 -4 5 -4 12 -2 16 4 4 6 11 7 18 3 6 -4 27
-6 47 -5 32 1 39 -4 75 -54 22 -30 45 -61 51 -68 27 -29 202 -281 267 -384 88
-138 99 -155 165 -273 29 -52 58 -101 63 -109 24 -40 189 -382 189 -393 0 -7
4 -17 9 -23 4 -5 20 -40 36 -79 15 -38 32 -81 38 -95 6 -14 11 -27 12 -30 0
-3 9 -30 20 -60 10 -30 20 -59 22 -65 1 -5 19 -62 39 -125 19 -63 37 -122 39
-130 2 -8 11 -46 20 -85 9 -38 19 -79 21 -90 2 -11 9 -44 15 -73 12 -59 19
-103 24 -147 1 -16 6 -48 9 -70 12 -80 17 -132 22 -215 8 -117 10 -340 4 -340
-3 0 -5 -28 -5 -63 -1 -62 -11 -177 -21 -231 -2 -15 -7 -47 -9 -70 -2 -22 -11
-72 -20 -111 -8 -38 -17 -83 -20 -100 -2 -16 -9 -46 -15 -65 -6 -19 -13 -44
-15 -55 -16 -72 -105 -327 -152 -435 -88 -199 -219 -436 -321 -580 -15 -21
-34 -48 -42 -60 -27 -41 -207 -264 -261 -325 -89 -98 -225 -230 -364 -353 -71
-62 -235 -181 -235 -170 -1 7 -2 247 -3 533 l-2 520 -32 65 c-60 120 -139 181
-268 205 -44 8 -4377 7 -4432 -1 -138 -20 -256 -127 -293 -264 -18 -63 -18
-1742 -1 -1815 29 -121 130 -226 252 -263 30 -9 4475 -9 4509 -1 82 22 172 90
217 166 46 79 51 125 51 446 l-1 297 59 42 c32 23 75 54 94 70 19 16 40 32 45
36 12 8 116 95 159 132 53 46 300 294 343 345 23 28 54 64 68 80 49 57 170
220 233 315 99 147 298 514 306 563 1 6 4 17 8 22 27 43 139 380 154 465 3 14
9 39 14 55 5 17 12 45 15 63 12 75 16 96 19 101 4 6 10 46 30 211 26 204 24
550 -4 755 -5 39 -12 90 -15 115 -5 37 -26 144 -51 265 -10 53 -27 123 -35
145 -7 22 -28 96 -35 125 -4 19 -62 190 -77 230 -48 127 -71 184 -84 215 -9
19 -22 51 -30 70 -36 83 -169 346 -233 460 -39 68 -70 127 -70 131 0 4 -3 9
-8 11 -9 4 -92 136 -92 148 0 4 -3 10 -7 12 -10 4 -53 65 -53 74 0 3 -13 23
-30 44 -16 21 -30 43 -30 49 0 6 -4 11 -8 11 -4 0 -16 15 -27 33 -10 17 -21
34 -24 37 -3 3 -17 21 -31 40 -13 19 -28 40 -32 45 -29 35 -87 119 -85 122 5
4 34 4 135 1 45 -2 82 1 82 5 0 5 5 5 11 2 16 -11 164 -4 214 10 79 21 173
123 184 199 3 17 5 209 5 426 1 390 0 396 -22 437 -41 78 -90 122 -167 149
-37 13 -58 13 -452 15 -284 1 -393 5 -394 13 0 6 -1 70 -3 141 -2 116 -5 136
-28 187 -35 75 -94 138 -170 179 l-63 34 -2240 2 c-1817 1 -2248 -1 -2281 -12z
m196 -81 c0 -8 -19 -13 -24 -6 -3 5 1 9 9 9 8 0 15 -2 15 -3z m940 -218 c0 -2
-7 -7 -16 -10 -8 -3 -12 -2 -9 4 6 10 25 14 25 6z m1920 0 c0 -2 -7 -7 -16
-10 -8 -3 -12 -2 -9 4 6 10 25 14 25 6z m460 -162 c0 -8 -19 -13 -24 -6 -3 5
1 9 9 9 8 0 15 -2 15 -3z m1155 -43 c3 -5 2 -12 -3 -15 -5 -3 -9 1 -9 9 0 17
3 19 12 6z m-1284 -34 c-10 -9 -11 -8 -5 6 3 10 9 15 12 12 3 -3 0 -11 -7 -18z
m-1067 -85 c3 -5 -1 -9 -9 -9 -8 0 -12 4 -9 9 3 4 7 8 9 8 2 0 6 -4 9 -8z
m-364 -182 c0 -5 -5 -10 -11 -10 -5 0 -7 5 -4 10 3 6 8 10 11 10 2 0 4 -4 4
-10z m-165 -289 c3 -5 2 -12 -3 -15 -5 -3 -9 1 -9 9 0 17 3 19 12 6z m-164
-358 c13 -16 12 -17 -3 -4 -10 7 -18 15 -18 17 0 8 8 3 21 -13z m484 -282 c3
-5 2 -12 -3 -15 -5 -3 -9 1 -9 9 0 17 3 19 12 6z m959 -9 c3 -5 -1 -9 -9 -9
-8 0 -12 4 -9 9 3 4 7 8 9 8 2 0 6 -4 9 -8z m-3234 -76 c0 -2 -7 -7 -16 -10
-8 -3 -12 -2 -9 4 6 10 25 14 25 6z m2111 -39 c-10 -9 -11 -8 -5 6 3 10 9 15
12 12 3 -3 0 -11 -7 -18z m-1056 -55 c-3 -3 -11 0 -18 7 -9 10 -8 11 6 5 10
-3 15 -9 12 -12z m3619 -58 c3 -8 2 -12 -4 -9 -6 3 -10 10 -10 16 0 14 7 11
14 -7z m-2719 -83 c3 -5 2 -12 -3 -15 -5 -3 -9 1 -9 9 0 17 3 19 12 6z m1920
0 c3 -5 2 -12 -3 -15 -5 -3 -9 1 -9 9 0 17 3 19 12 6z m-3191 -9 c3 -5 -1 -9
-9 -9 -8 0 -12 4 -9 9 3 4 7 8 9 8 2 0 6 -4 9 -8z m1593 -7 c0 -8 -4 -12 -9
-9 -5 3 -6 10 -3 15 9 13 12 11 12 -6z m2240 0 c0 -8 -4 -12 -9 -9 -5 3 -6 10
-3 15 9 13 12 11 12 -6z m-1762 -135 c3 -5 1 -10 -4 -10 -6 0 -11 5 -11 10 0
6 2 10 4 10 3 0 8 -4 11 -10z"/>
</g>
</svg>
